<mxfile host="www.draw.io" modified="2020-01-06T22:08:08.843Z" agent="Mozilla/5.0 (Windows NT 10.0; Win64; x64) AppleWebKit/537.36 (KHTML, like Gecko) Chrome/79.0.3945.88 Safari/537.36" etag="y_-vz6bgLhUTEgFgJ9cq" version="12.4.9" type="github">
  <diagram id="C5RBs43oDa-KdzZeNtuy" name="Page-1">
    <mxGraphModel dx="976" dy="620" grid="1" gridSize="10" guides="1" tooltips="1" connect="1" arrows="1" fold="1" page="1" pageScale="1" pageWidth="827" pageHeight="1169" math="0" shadow="0">
      <root>
        <mxCell id="WIyWlLk6GJQsqaUBKTNV-0"/>
        <mxCell id="WIyWlLk6GJQsqaUBKTNV-1" parent="WIyWlLk6GJQsqaUBKTNV-0"/>
        <mxCell id="z6uYV2AH5JMJ_RqKu9PL-5" style="edgeStyle=none;rounded=0;orthogonalLoop=1;jettySize=auto;html=1;exitX=0.5;exitY=1;exitDx=0;exitDy=0;entryX=0.5;entryY=0;entryDx=0;entryDy=0;" edge="1" parent="WIyWlLk6GJQsqaUBKTNV-1" source="WIyWlLk6GJQsqaUBKTNV-3" target="z6uYV2AH5JMJ_RqKu9PL-1">
          <mxGeometry relative="1" as="geometry"/>
        </mxCell>
        <mxCell id="z6uYV2AH5JMJ_RqKu9PL-6" style="edgeStyle=none;rounded=0;orthogonalLoop=1;jettySize=auto;html=1;exitX=0.5;exitY=1;exitDx=0;exitDy=0;entryX=0.5;entryY=0;entryDx=0;entryDy=0;" edge="1" parent="WIyWlLk6GJQsqaUBKTNV-1" source="WIyWlLk6GJQsqaUBKTNV-3" target="z6uYV2AH5JMJ_RqKu9PL-2">
          <mxGeometry relative="1" as="geometry"/>
        </mxCell>
        <mxCell id="z6uYV2AH5JMJ_RqKu9PL-7" style="edgeStyle=none;rounded=0;orthogonalLoop=1;jettySize=auto;html=1;exitX=0.5;exitY=1;exitDx=0;exitDy=0;entryX=0.5;entryY=0;entryDx=0;entryDy=0;" edge="1" parent="WIyWlLk6GJQsqaUBKTNV-1" source="WIyWlLk6GJQsqaUBKTNV-3" target="z6uYV2AH5JMJ_RqKu9PL-3">
          <mxGeometry relative="1" as="geometry"/>
        </mxCell>
        <mxCell id="z6uYV2AH5JMJ_RqKu9PL-8" style="edgeStyle=none;rounded=0;orthogonalLoop=1;jettySize=auto;html=1;exitX=0.5;exitY=1;exitDx=0;exitDy=0;entryX=0.5;entryY=0;entryDx=0;entryDy=0;" edge="1" parent="WIyWlLk6GJQsqaUBKTNV-1" source="WIyWlLk6GJQsqaUBKTNV-3" target="z6uYV2AH5JMJ_RqKu9PL-4">
          <mxGeometry relative="1" as="geometry"/>
        </mxCell>
        <mxCell id="WIyWlLk6GJQsqaUBKTNV-3" value="VHDL predefined types" style="rounded=1;whiteSpace=wrap;html=1;fontSize=12;glass=0;strokeWidth=1;shadow=0;" parent="WIyWlLk6GJQsqaUBKTNV-1" vertex="1">
          <mxGeometry x="290" y="60" width="150" height="40" as="geometry"/>
        </mxCell>
        <mxCell id="z6uYV2AH5JMJ_RqKu9PL-1" value="Scalar" style="rounded=1;whiteSpace=wrap;html=1;fontSize=12;glass=0;strokeWidth=1;shadow=0;" vertex="1" parent="WIyWlLk6GJQsqaUBKTNV-1">
          <mxGeometry x="80" y="170" width="100" height="40" as="geometry"/>
        </mxCell>
        <mxCell id="z6uYV2AH5JMJ_RqKu9PL-2" value="Access" style="rounded=1;whiteSpace=wrap;html=1;fontSize=12;glass=0;strokeWidth=1;shadow=0;" vertex="1" parent="WIyWlLk6GJQsqaUBKTNV-1">
          <mxGeometry x="243" y="170" width="100" height="40" as="geometry"/>
        </mxCell>
        <mxCell id="z6uYV2AH5JMJ_RqKu9PL-3" value="file" style="rounded=1;whiteSpace=wrap;html=1;fontSize=12;glass=0;strokeWidth=1;shadow=0;" vertex="1" parent="WIyWlLk6GJQsqaUBKTNV-1">
          <mxGeometry x="407" y="170" width="100" height="40" as="geometry"/>
        </mxCell>
        <mxCell id="z6uYV2AH5JMJ_RqKu9PL-4" value="compozite" style="rounded=1;whiteSpace=wrap;html=1;fontSize=12;glass=0;strokeWidth=1;shadow=0;" vertex="1" parent="WIyWlLk6GJQsqaUBKTNV-1">
          <mxGeometry x="570" y="170" width="100" height="40" as="geometry"/>
        </mxCell>
      </root>
    </mxGraphModel>
  </diagram>
</mxfile>
